<svg version="1.0" xmlns="http://www.w3.org/2000/svg"
     width="275.000000pt" height="183.000000pt" viewBox="0 0 275.000000 183.000000"
     preserveAspectRatio="xMidYMid meet">

    <g transform="translate(0.000000,183.000000) scale(0.100000,-0.100000)"
       fill="#000000" stroke="none">
        <path d="M1246 1778 c-8 -29 -18 -65 -22 -80 -4 -17 -13 -28 -23 -28 -9 0 -93
20 -187 44 l-172 43 -21 -81 c-12 -45 -21 -86 -21 -92 0 -6 35 -19 77 -29 89
-20 133 -55 133 -102 0 -49 -57 -233 -76 -249 -15 -11 -15 -13 -3 -8 15 5 14
-6 -8 -83 -13 -48 -47 -173 -74 -278 -27 -104 -58 -201 -68 -215 -23 -32 -61
-36 -141 -15 -35 9 -66 13 -70 8 -10 -11 -80 -168 -80 -180 0 -5 78 -29 173
-53 94 -24 175 -46 179 -49 4 -4 -8 -65 -27 -136 -19 -72 -35 -137 -35 -147 0
-12 18 -21 74 -34 40 -9 80 -15 87 -12 8 3 29 62 49 138 19 72 38 134 42 136
8 5 129 -26 140 -36 4 -3 -6 -55 -22 -115 -16 -61 -30 -113 -30 -117 0 -5 42
-8 94 -8 l94 0 17 73 c10 39 21 76 26 81 5 6 9 19 9 29 0 15 5 18 23 13 12 -3
71 -11 130 -18 242 -26 394 39 478 203 63 125 70 261 19 344 -24 39 -91 101
-126 117 -13 6 -24 14 -24 18 0 3 24 16 54 29 108 44 176 157 176 289 0 144
-104 259 -300 332 -40 15 -60 28 -60 39 0 9 16 72 35 141 19 69 35 128 35 133
0 4 -42 7 -94 7 l-93 0 -29 -111 c-16 -61 -32 -115 -35 -120 -9 -16 -149 22
-149 40 0 9 11 55 24 104 l25 87 -94 0 -94 0 -15 -52z m189 -381 c11 -6 35
-12 53 -14 45 -5 149 -53 190 -87 31 -27 44 -54 20 -41 -7 4 -2 -2 12 -14 50
-40 22 -160 -48 -203 -29 -18 -53 -22 -124 -24 -48 -1 -88 0 -88 3 0 3 8 12
18 20 11 10 8 10 -10 -1 l-28 -16 -2 42 -1 43 -4 -44 c-4 -41 -6 -43 -31 -37
-15 3 -38 9 -52 12 -39 8 -43 18 -38 88 3 51 1 66 -10 66 -8 0 -11 7 -8 18 3
9 17 61 32 115 l27 97 36 -6 c20 -4 45 -11 56 -17z m-145 -283 c0 -57 -2 -65
-17 -62 -14 3 -18 13 -16 39 2 36 19 89 28 89 3 0 5 -30 5 -66z m-26 -244 c20
-7 26 -16 26 -41 0 -18 -7 -38 -17 -45 -17 -13 -17 -14 0 -8 15 5 17 -2 17
-66 0 -57 -4 -75 -17 -85 -16 -12 -15 -13 7 -8 25 4 25 5 22 92 l-4 88 31 13
c17 7 38 9 47 6 14 -5 15 -4 4 9 -10 12 -10 15 1 15 8 0 21 -5 29 -10 13 -9
13 -11 0 -20 -11 -7 -12 -10 -2 -10 11 0 13 -19 10 -90 -2 -56 1 -90 7 -90 6
0 9 32 7 81 -3 76 -2 81 15 75 17 -6 17 -5 1 8 -21 15 -24 36 -5 36 17 0 125
-56 162 -85 18 -13 40 -39 49 -58 20 -44 21 -120 1 -137 -8 -7 -12 -17 -9 -22
4 -5 -8 -2 -25 7 -31 16 -32 16 -19 -5 7 -11 16 -20 20 -20 18 0 5 -20 -24
-38 -41 -25 -104 -40 -93 -22 6 9 3 9 -13 1 -43 -23 -252 -3 -313 29 -28 15
-26 73 4 94 l22 17 -22 -11 c-23 -11 -23 -10 -23 64 0 69 2 76 28 96 22 17 23
19 4 10 -13 -7 -26 -9 -29 -6 -10 9 7 57 20 55 26 -3 35 2 40 21 3 13 -1 21
-14 25 -19 6 -25 26 -12 38 9 10 38 9 67 -3z m82 -22 c7 -10 -20 -38 -38 -38
-4 0 -8 11 -8 25 0 18 5 25 19 25 11 0 23 -5 27 -12z m-197 -259 c-1 -78 -4
-102 -16 -106 -26 -10 -39 14 -18 37 15 17 16 20 3 15 -14 -6 -14 3 4 74 11
45 22 81 24 81 2 0 4 -45 3 -101z"/>
        <path d="M1543 1335 c20 -14 23 -65 5 -84 -10 -11 -10 -13 0 -7 17 10 17 -135
0 -152 -9 -9 -8 -12 8 -12 18 0 19 8 19 129 l0 130 -25 4 c-22 5 -23 4 -7 -8z"/>
        <path d="M1602 1289 c-12 -18 -11 -19 5 -10 12 6 25 6 36 -1 16 -9 17 -8 5 11
-16 26 -30 27 -46 0z"/>
        <path d="M1484 1214 c-18 -14 -18 -15 4 -4 12 6 22 13 22 15 0 8 -5 6 -26 -11z"/>
        <path d="M1416 1153 c9 -51 11 -51 16 -4 2 29 0 41 -10 41 -10 0 -11 -10 -6
-37z"/>
        <path d="M1340 1104 c-11 -12 -10 -18 4 -32 16 -16 18 -16 31 2 11 14 12 23 4
33 -15 17 -24 16 -39 -3z"/>
        <path d="M1490 756 c0 -3 9 -10 20 -16 11 -6 20 -8 20 -6 0 3 -9 10 -20 16
-11 6 -20 8 -20 6z"/>
        <path d="M1341 736 c-13 -16 -4 -46 14 -46 7 0 18 6 24 14 9 11 8 18 -4 30
-20 19 -20 19 -34 2z"/>
        <path d="M1550 716 c6 -6 10 -43 10 -83 0 -73 0 -74 -22 -63 -23 11 -23 11 0
-8 19 -14 23 -26 21 -55 -2 -20 0 -36 5 -34 5 1 9 59 10 129 1 114 -1 126 -16
125 -12 -1 -14 -5 -8 -11z"/>
        <path d="M1450 616 c0 -3 9 -10 20 -16 11 -6 20 -8 20 -6 0 3 -9 10 -20 16
-11 6 -20 8 -20 6z"/>
        <path d="M1224 594 c-18 -14 -18 -15 4 -4 12 6 22 13 22 15 0 8 -5 6 -26 -11z"/>
        <path d="M787 1226 c-3 -8 0 -19 7 -25 18 -15 48 -3 44 18 -4 21 -44 27 -51 7z"/>
        <path d="M870 1181 c0 -18 18 -21 30 -6 10 13 9 15 -9 15 -11 0 -21 -4 -21 -9z"/>
    </g>
</svg>
