<svg version="1.0" xmlns="http://www.w3.org/2000/svg"
     width="1500.000000pt" height="475.000000pt" viewBox="0 0 1500.000000 475.000000"
     preserveAspectRatio="xMidYMid meet">

    <g transform="translate(0.000000,475.000000) scale(0.100000,-0.100000)"
       fill="#000000" stroke="none">
        <path d="M8010 4290 c-11 -9 -12 -13 -2 -17 6 -2 12 -9 12 -15 0 -23 32 -35
138 -53 61 -10 112 -22 112 -27 0 -4 7 -8 15 -8 8 0 15 -4 15 -9 0 -6 20 -13
45 -17 25 -3 45 -10 45 -15 0 -5 20 -14 45 -20 25 -6 45 -15 45 -20 0 -5 9 -9
20 -9 11 0 20 -4 20 -10 0 -5 18 -15 40 -21 22 -7 40 -15 40 -19 0 -3 17 -12
38 -19 20 -8 44 -22 53 -32 9 -11 21 -19 27 -19 6 0 15 -6 19 -12 10 -16 70
-48 89 -48 8 0 14 -6 14 -14 0 -7 14 -19 30 -26 17 -7 30 -16 30 -21 0 -5 11
-14 25 -19 14 -5 25 -16 25 -24 0 -7 8 -16 18 -20 24 -8 56 -29 65 -43 4 -7
17 -13 28 -13 12 0 23 -10 29 -25 5 -14 16 -25 24 -25 8 0 19 -6 23 -13 4 -7
20 -20 36 -30 15 -10 27 -24 27 -32 0 -8 6 -15 13 -15 6 0 25 -13 40 -30 16
-16 35 -30 43 -30 8 0 14 -4 14 -9 0 -12 56 -71 67 -71 8 0 47 -44 73 -80 3
-4 15 -12 28 -19 12 -6 22 -18 22 -26 0 -8 4 -15 10 -15 14 0 75 -60 89 -87 6
-13 18 -23 25 -23 7 0 26 -16 42 -35 56 -69 92 -105 103 -105 6 0 11 -5 11
-10 0 -6 15 -26 33 -45 17 -20 50 -56 72 -81 22 -26 59 -67 83 -91 23 -25 42
-46 42 -48 0 -4 61 -70 130 -142 22 -22 40 -45 40 -50 0 -11 80 -83 92 -83 4
0 8 -6 8 -13 0 -7 12 -25 27 -41 17 -19 23 -31 15 -34 -7 -2 -12 -10 -12 -18
0 -8 -4 -14 -8 -14 -5 0 -26 -16 -48 -35 -21 -19 -42 -35 -45 -35 -4 0 -9 -9
-12 -20 -3 -11 -13 -23 -23 -27 -10 -3 -29 -20 -43 -36 -14 -16 -43 -48 -63
-70 -21 -23 -38 -48 -38 -54 0 -7 -4 -13 -10 -13 -10 0 -57 -47 -125 -126 -22
-25 -52 -58 -66 -73 -14 -14 -31 -36 -38 -48 -6 -13 -16 -23 -22 -23 -11 0
-48 -40 -49 -52 0 -9 -23 -38 -62 -80 -16 -16 -28 -34 -28 -40 0 -6 -15 -26
-33 -43 -19 -18 -39 -47 -46 -64 -7 -16 -22 -33 -33 -37 -10 -3 -24 -18 -31
-32 -6 -15 -22 -38 -34 -51 -13 -13 -23 -32 -23 -42 0 -10 -9 -23 -20 -29 -11
-6 -20 -17 -20 -25 0 -8 -6 -18 -12 -22 -7 -4 -22 -26 -33 -48 -11 -22 -25
-44 -32 -48 -7 -4 -13 -12 -13 -18 0 -5 -5 -15 -10 -22 -48 -57 -59 -74 -64
-103 -4 -17 -13 -35 -21 -38 -8 -3 -15 -14 -15 -25 0 -11 -6 -26 -13 -33 -8
-7 -20 -30 -26 -51 -7 -20 -18 -43 -25 -50 -18 -18 -46 -138 -46 -200 0 -77
14 -92 81 -84 30 4 55 11 57 17 2 5 21 13 43 16 21 4 39 10 39 15 0 5 9 9 20
9 11 0 20 4 20 9 0 5 25 17 55 26 30 8 55 20 55 25 0 6 5 10 11 10 6 0 17 7
25 15 9 8 24 15 35 15 10 0 19 4 19 9 0 5 14 14 30 20 17 5 30 15 30 20 0 6 7
11 15 11 8 0 15 4 15 9 0 5 14 14 30 21 17 7 30 16 30 21 0 5 11 14 25 19 14
5 25 14 25 20 0 5 6 10 14 10 8 0 34 18 57 40 24 22 49 40 56 40 7 0 13 6 13
13 0 14 66 77 81 77 5 0 9 7 9 15 0 8 12 23 28 32 33 22 61 54 62 71 0 6 6 12
13 12 6 0 27 16 46 35 19 19 38 35 42 35 5 0 9 6 9 13 0 15 58 77 71 77 5 0 9
7 9 15 0 9 7 18 16 22 8 3 20 16 25 29 4 13 15 24 24 24 8 0 15 8 15 18 0 9
16 32 35 51 19 19 35 37 35 42 0 10 59 69 70 69 5 0 15 10 21 23 7 12 21 31
33 43 12 11 32 35 46 52 14 18 35 44 47 59 13 16 23 31 23 36 0 4 5 7 11 7 6
0 20 11 31 25 11 14 25 25 32 25 7 0 18 11 24 25 14 31 37 32 53 3 13 -25 67
-78 78 -78 4 0 14 -11 21 -25 7 -14 17 -25 21 -25 4 0 58 -49 120 -110 62 -60
119 -110 126 -110 7 0 13 -6 13 -13 0 -8 12 -20 28 -28 15 -8 33 -22 40 -31 7
-10 19 -18 27 -18 7 0 17 -9 20 -21 4 -11 18 -24 31 -29 13 -5 24 -14 24 -19
0 -5 9 -11 21 -14 11 -3 23 -15 26 -26 3 -12 13 -21 22 -21 9 0 29 -11 45 -25
17 -14 40 -28 52 -31 12 -3 24 -13 26 -22 3 -10 22 -23 44 -31 21 -8 44 -20
52 -27 7 -8 23 -14 34 -14 11 0 22 -8 25 -20 3 -13 19 -24 46 -31 22 -6 46
-16 52 -23 7 -7 38 -18 69 -26 31 -7 56 -19 56 -25 0 -7 27 -18 63 -25 34 -6
64 -16 67 -21 12 -19 237 -31 357 -20 65 7 120 15 123 20 3 4 33 14 68 21 34
7 62 18 62 24 0 7 27 20 60 30 33 10 60 22 60 26 0 5 16 14 35 20 19 6 35 18
35 25 0 7 14 18 30 24 17 5 30 14 30 19 0 4 16 15 36 22 20 8 40 25 45 37 5
13 15 23 23 23 7 0 21 11 30 25 9 14 23 25 31 25 8 0 15 6 15 13 0 8 11 20 25
27 14 7 25 16 25 20 0 3 27 35 60 70 33 36 60 71 60 78 0 6 4 12 8 12 5 0 15
11 22 25 7 13 21 27 31 30 9 3 22 18 27 34 5 15 16 34 23 42 8 8 23 30 33 49
11 19 28 44 38 54 10 11 18 27 18 37 0 9 6 19 14 22 8 3 20 22 27 41 7 20 17
36 21 36 4 0 8 7 8 15 0 9 7 18 15 21 8 4 15 14 15 24 0 10 6 25 13 32 20 22
34 51 42 86 3 18 11 32 15 32 5 0 14 18 20 40 6 22 15 40 20 40 5 0 14 25 21
56 7 31 18 61 24 68 11 11 31 73 42 129 3 15 11 27 18 27 7 0 19 35 30 88 10
48 22 89 26 92 8 6 39 200 39 248 0 17 6 32 13 35 9 3 12 58 12 232 0 174 -3
229 -12 233 -7 2 -13 14 -13 27 0 39 -22 129 -35 140 -15 13 -45 74 -45 92 0
7 -6 13 -14 13 -7 0 -21 11 -30 24 -8 14 -24 27 -35 31 -10 3 -21 14 -24 24
-2 10 -17 21 -33 25 -16 4 -31 12 -34 17 -8 12 -101 29 -161 29 -37 0 -49 4
-49 15 0 13 -21 15 -125 15 -104 0 -125 -2 -125 -15 0 -11 -12 -15 -52 -15
-88 0 -308 -22 -308 -32 0 -4 -9 -8 -20 -8 -52 0 -170 -24 -170 -34 0 -7 -43
-19 -105 -30 -58 -11 -105 -22 -105 -25 0 -4 -27 -13 -60 -19 -37 -8 -60 -18
-60 -26 0 -8 -23 -18 -60 -26 -33 -7 -60 -16 -60 -20 0 -4 -12 -10 -27 -13
-78 -16 -123 -32 -123 -44 0 -7 -20 -18 -45 -25 -25 -7 -45 -15 -45 -19 0 -3
-20 -12 -45 -19 -25 -7 -45 -18 -45 -25 0 -6 -18 -17 -40 -24 -22 -6 -40 -15
-40 -20 0 -4 -18 -14 -40 -21 -22 -7 -40 -17 -40 -22 0 -4 -7 -8 -15 -8 -8 0
-15 -4 -15 -8 0 -5 -18 -15 -40 -22 -22 -7 -40 -17 -40 -21 0 -4 -16 -13 -35
-19 -19 -6 -35 -17 -35 -24 0 -14 -41 -36 -66 -36 -8 0 -22 -9 -31 -20 -10
-11 -21 -20 -26 -20 -4 0 -19 -11 -33 -25 -14 -14 -35 -27 -49 -31 -13 -3 -26
-12 -29 -20 -3 -8 -10 -14 -16 -14 -6 0 -18 -6 -25 -12 -26 -23 -40 -33 -70
-48 -16 -8 -39 -25 -51 -37 -12 -13 -26 -23 -32 -23 -5 0 -12 -6 -15 -14 -3
-8 -22 -20 -41 -27 -20 -7 -38 -21 -42 -31 -3 -10 -16 -21 -30 -24 -13 -3 -24
-10 -24 -15 0 -5 -11 -15 -25 -21 -13 -6 -27 -19 -30 -30 -4 -10 -13 -18 -21
-18 -7 0 -19 -9 -26 -20 -7 -11 -17 -20 -23 -20 -6 0 -16 9 -23 20 -7 11 -21
20 -32 20 -11 0 -20 4 -20 10 0 14 -125 140 -139 140 -6 0 -17 11 -23 25 -6
13 -19 27 -30 30 -10 4 -18 11 -18 16 0 5 -11 14 -25 19 -14 5 -25 14 -25 19
0 5 -8 12 -18 15 -11 4 -25 18 -32 31 -7 14 -19 25 -27 25 -7 0 -18 9 -25 20
-7 11 -18 20 -24 20 -6 0 -16 10 -23 23 -6 12 -32 31 -56 41 -24 11 -46 28
-49 39 -2 10 -14 21 -25 24 -12 3 -21 9 -21 14 0 5 -11 14 -25 19 -14 5 -25
14 -25 20 0 5 -6 10 -13 10 -7 0 -18 9 -25 20 -7 11 -19 20 -27 20 -8 0 -15 4
-15 9 0 5 -13 14 -30 21 -16 7 -30 18 -30 25 0 7 -13 19 -30 27 -16 7 -30 17
-30 21 0 4 -13 13 -30 18 -16 6 -30 16 -30 22 0 14 -54 47 -76 47 -8 0 -14 4
-14 9 0 5 -13 14 -30 21 -16 7 -30 18 -30 24 0 7 -16 18 -35 26 -19 8 -35 17
-35 21 0 3 -20 14 -45 23 -25 10 -45 23 -45 30 0 7 -18 19 -40 26 -22 7 -40
17 -40 21 0 5 -18 14 -40 20 -22 7 -40 18 -40 25 0 7 -24 20 -52 30 -29 9 -59
23 -66 31 -7 7 -22 13 -33 13 -10 0 -19 5 -19 10 0 6 -7 10 -15 10 -8 0 -15 4
-15 10 0 5 -18 14 -40 20 -22 6 -40 14 -40 18 0 4 -24 13 -52 20 -29 7 -54 17
-56 22 -2 6 -12 10 -23 10 -10 0 -19 4 -19 9 0 5 -18 12 -40 16 -22 4 -46 13
-53 19 -7 7 -34 16 -60 20 -26 4 -47 11 -47 17 0 5 -11 9 -24 9 -13 0 -26 4
-28 9 -1 6 -50 18 -108 28 -58 10 -106 21 -108 25 -2 5 -17 8 -33 8 -16 0 -29
4 -29 9 0 5 -33 12 -72 16 -40 4 -75 11 -78 15 -9 14 -223 22 -240 10z m5520
-495 c0 -8 8 -15 19 -15 43 0 141 -58 141 -83 0 -5 11 -20 25 -33 14 -13 28
-37 31 -54 4 -16 12 -30 19 -30 14 0 30 -40 41 -105 4 -22 12 -43 18 -47 16
-10 15 -476 0 -486 -6 -4 -15 -23 -19 -42 -16 -80 -26 -110 -39 -110 -7 0 -18
-24 -26 -56 -8 -31 -20 -63 -28 -71 -8 -7 -20 -34 -28 -58 -13 -43 -19 -55
-56 -96 -10 -10 -18 -23 -18 -27 0 -17 -32 -72 -41 -72 -5 0 -9 -9 -9 -20 0
-11 -7 -23 -15 -26 -8 -4 -15 -12 -15 -20 0 -7 -8 -18 -19 -23 -10 -6 -21 -21
-25 -35 -3 -13 -21 -39 -38 -57 -18 -19 -40 -47 -48 -62 -8 -16 -22 -33 -32
-38 -10 -5 -18 -15 -18 -21 0 -6 -24 -34 -52 -62 -29 -29 -68 -70 -86 -91 -54
-65 -92 -105 -101 -105 -4 0 -14 -11 -21 -25 -7 -14 -19 -25 -27 -25 -7 0 -31
-17 -53 -37 -58 -55 -67 -62 -94 -75 -14 -6 -28 -19 -31 -29 -3 -10 -19 -21
-35 -24 -17 -4 -30 -10 -30 -15 0 -5 -20 -16 -45 -26 -25 -9 -45 -22 -45 -29
0 -7 -20 -18 -45 -24 -25 -6 -45 -15 -45 -20 0 -13 -115 -31 -198 -31 -74 0
-172 16 -172 29 0 4 -20 12 -45 19 -26 7 -45 18 -45 26 0 7 -24 21 -55 31 -30
9 -55 21 -55 26 0 5 -7 9 -15 9 -9 0 -18 7 -21 15 -4 8 -12 15 -20 15 -8 0
-14 5 -14 10 0 6 -8 13 -17 17 -18 6 -39 23 -71 56 -9 9 -20 17 -25 17 -5 0
-14 6 -21 13 -7 6 -25 21 -41 32 -16 11 -44 37 -64 58 -19 20 -41 37 -48 37
-7 0 -13 4 -13 9 0 14 -41 54 -71 70 -15 7 -32 24 -38 37 -6 14 -18 27 -27 31
-23 8 -59 45 -67 66 -4 9 -15 20 -24 24 -10 4 -24 15 -31 25 -7 10 -19 18 -26
18 -7 0 -18 11 -24 25 -7 14 -19 28 -28 32 -19 7 -64 51 -64 62 0 10 -69 71
-81 71 -5 0 -9 7 -9 15 0 16 65 85 80 85 6 0 10 4 10 9 0 13 55 67 75 75 10 3
19 15 22 26 3 11 11 20 18 20 7 0 32 18 55 40 23 22 44 40 45 40 1 0 22 18 45
40 23 22 46 40 51 40 5 0 9 7 9 16 0 8 14 20 30 25 17 6 30 15 30 20 0 5 11
15 25 21 13 6 27 20 31 30 3 11 17 23 30 28 13 5 24 14 24 20 0 5 7 10 15 10
9 0 20 10 26 23 6 13 30 32 54 43 24 10 49 29 54 42 6 12 17 22 25 22 7 0 16
7 20 15 3 8 12 15 20 15 9 0 20 9 26 20 6 11 15 20 21 20 5 0 20 10 32 23 12
12 34 28 50 35 15 6 27 16 27 22 0 5 6 10 14 10 8 0 16 7 20 15 3 8 12 15 21
15 8 0 15 4 15 10 0 5 16 17 35 26 19 9 35 22 35 29 0 11 40 35 60 35 6 0 19
8 30 18 10 9 30 26 42 37 13 11 38 27 56 34 17 7 32 17 32 22 0 4 18 14 40 20
22 7 40 17 40 24 0 6 18 18 40 25 22 7 40 17 40 21 0 4 16 13 35 19 19 6 35
17 35 24 0 7 25 21 55 31 30 9 55 20 55 24 0 4 20 12 45 19 26 7 45 18 45 26
0 9 22 18 65 27 36 7 65 16 65 20 0 9 69 26 143 34 38 5 57 12 57 21 0 11 25
14 125 14 104 0 125 -2 125 -15z"/>
        <path d="M13223 3338 c-18 -6 -33 -15 -33 -20 0 -5 -17 -26 -39 -47 -31 -30
-40 -47 -49 -96 -12 -70 -1 -157 22 -181 9 -8 16 -19 16 -24 0 -16 46 -59 74
-70 54 -20 216 -5 216 20 0 3 8 15 18 26 37 40 52 69 52 101 0 18 5 33 10 33
6 0 10 18 10 40 0 22 -4 40 -9 40 -5 0 -11 15 -15 32 -11 56 -30 87 -58 99
-16 6 -28 17 -28 25 0 29 -121 43 -187 22z m172 -71 c7 -9 16 -17 22 -17 5 0
15 -16 22 -35 7 -19 17 -35 22 -35 5 0 9 -27 9 -60 0 -33 -4 -60 -10 -60 -5 0
-10 -10 -10 -22 0 -12 -18 -39 -42 -62 -41 -39 -46 -41 -107 -41 -43 0 -66 4
-68 13 -3 6 -9 12 -13 12 -17 0 -57 48 -69 81 -6 17 -11 48 -11 68 0 43 18
111 29 111 4 0 13 11 20 24 20 36 49 46 125 43 51 -2 71 -7 81 -20z"/>
        <path d="M13220 3236 c0 -8 -6 -17 -12 -20 -10 -5 -10 -7 0 -12 6 -3 12 -14
12 -24 0 -10 -6 -21 -12 -23 -10 -4 -10 -6 0 -6 15 -1 17 -141 2 -141 -5 0
-10 -4 -10 -10 0 -5 11 -10 25 -10 23 0 25 4 25 45 0 43 1 45 30 45 20 0 30
-5 30 -15 0 -8 4 -15 9 -15 5 0 11 -13 15 -30 4 -24 11 -30 31 -30 23 0 25 3
19 28 -4 15 -10 29 -14 32 -17 13 -17 38 1 53 29 25 26 89 -6 122 -22 21 -35
25 -85 25 -45 0 -60 -4 -60 -14z m125 -56 c3 -6 3 -19 0 -30 -5 -16 -15 -20
-51 -20 -42 0 -44 1 -44 30 0 29 2 30 44 30 25 0 48 -5 51 -10z"/>
        <path d="M1230 3075 c-7 -25 -16 -45 -19 -45 -4 0 -15 -31 -26 -70 -11 -38
-22 -70 -25 -70 -4 0 -13 -22 -20 -50 -7 -27 -16 -50 -20 -50 -3 0 -14 -31
-24 -70 -10 -38 -22 -70 -27 -70 -4 0 -11 -17 -15 -37 -4 -21 -13 -44 -21 -51
-7 -7 -13 -20 -13 -28 0 -8 -4 -14 -9 -14 -5 0 -11 -12 -14 -27 -11 -56 -32
-118 -44 -131 -7 -7 -16 -31 -19 -53 -4 -21 -10 -39 -13 -39 -8 0 -26 -50 -36
-97 -4 -18 -10 -33 -15 -33 -5 0 -11 -8 -13 -17 -3 -10 -10 -39 -17 -65 -7
-27 -18 -48 -24 -48 -7 0 -20 -31 -30 -70 -10 -38 -22 -70 -25 -70 -4 0 -15
-31 -25 -70 -10 -38 -22 -70 -26 -72 -5 -2 -10 -12 -12 -23 -3 -20 3 -20 342
-22 364 -2 360 -3 360 45 0 12 4 22 8 22 9 0 27 47 37 98 4 17 10 32 15 32 5
0 11 8 13 18 3 9 10 38 17 65 7 26 18 47 24 47 7 0 21 33 31 73 10 39 24 78
31 84 7 7 15 31 19 53 4 22 12 46 19 53 7 7 16 29 20 49 4 21 13 44 21 52 8 8
15 24 15 35 0 12 4 21 9 21 5 0 12 -34 16 -75 4 -41 11 -75 15 -75 4 0 13 -52
20 -115 7 -63 17 -115 22 -115 4 0 8 -13 8 -30 0 -16 5 -30 10 -30 6 0 10 -12
10 -27 0 -57 34 -268 44 -275 6 -4 105 -8 219 -8 201 0 209 1 214 20 3 11 9
20 13 20 4 0 16 29 25 65 10 36 21 65 25 65 3 0 12 23 19 50 7 28 17 50 22 50
5 0 9 6 9 14 0 24 33 116 42 116 4 0 8 7 8 15 0 36 34 135 47 135 7 0 13 5 13
12 0 22 34 128 41 128 4 0 10 17 14 38 3 20 11 44 16 52 11 15 10 -25 -8 -573
l-6 -208 316 3 c173 2 318 5 320 8 3 3 13 226 23 495 9 270 21 492 24 495 4 3
10 103 14 223 l7 217 -450 0 -450 0 -7 -45 c-3 -25 -10 -45 -14 -45 -4 0 -15
-29 -25 -65 -9 -36 -21 -65 -25 -65 -4 0 -10 -12 -13 -27 -15 -73 -31 -123
-41 -123 -6 0 -20 -30 -30 -67 -11 -38 -22 -70 -26 -73 -8 -6 -40 -108 -40
-126 0 -8 -4 -14 -9 -14 -6 0 -13 -21 -17 -47 -4 -27 -9 -41 -12 -33 -3 8 -8
17 -13 20 -4 3 -15 65 -25 138 -10 72 -21 132 -25 132 -4 0 -10 34 -14 75 -4
41 -11 75 -15 75 -4 0 -11 29 -15 65 -3 36 -10 65 -15 65 -4 0 -11 30 -15 67
-4 36 -9 72 -12 80 -4 10 -72 13 -348 13 l-342 0 -13 -45z"/>
        <path d="M3770 3105 c0 -8 -4 -15 -9 -15 -5 0 -14 -29 -21 -65 -7 -36 -16 -65
-20 -65 -4 0 -15 -45 -25 -100 -11 -55 -22 -100 -26 -100 -4 0 -10 -18 -14
-40 -4 -22 -10 -40 -15 -40 -5 0 -11 -18 -15 -40 -4 -22 -10 -40 -14 -40 -4 0
-16 -43 -26 -95 -10 -52 -21 -95 -24 -95 -4 0 -13 -30 -21 -67 -7 -38 -16 -70
-20 -73 -4 -3 -16 -45 -26 -95 -10 -49 -21 -92 -25 -95 -4 -3 -15 -44 -25 -92
-10 -49 -22 -88 -26 -88 -4 0 -8 -7 -8 -15 0 -8 -4 -15 -9 -15 -4 0 -13 -30
-19 -67 -6 -37 -16 -69 -22 -71 -5 -2 -10 -14 -10 -28 l0 -24 338 3 337 2 14
70 c8 39 18 72 23 73 4 2 8 12 8 23 0 18 10 19 211 19 155 0 214 -3 223 -12 7
-7 18 -46 24 -87 7 -41 15 -78 18 -83 3 -5 158 -8 344 -8 l339 1 -6 32 c-3 18
-10 34 -14 37 -4 3 -13 36 -19 73 -7 37 -15 67 -19 67 -4 0 -15 41 -25 90 -11
50 -22 90 -25 90 -4 0 -15 38 -25 85 -10 47 -23 85 -27 85 -5 0 -9 16 -9 35 0
19 -4 35 -9 35 -5 0 -14 27 -22 60 -7 33 -16 60 -20 60 -3 0 -14 41 -25 90
-10 50 -21 90 -24 90 -4 0 -12 32 -19 70 -7 39 -16 70 -20 70 -4 0 -15 41 -25
90 -11 50 -22 90 -25 90 -4 0 -15 38 -26 85 -12 55 -23 85 -32 85 -7 0 -13 5
-13 10 0 7 -178 10 -515 10 -451 0 -515 -2 -515 -15z m540 -405 c4 0 10 -22
14 -50 4 -27 11 -50 15 -50 5 0 12 -22 16 -50 4 -27 10 -50 14 -50 4 0 16 -43
26 -95 10 -52 22 -95 26 -95 5 0 9 -11 9 -25 l0 -25 -139 0 -139 0 5 43 c4 23
10 45 15 48 5 3 17 48 25 100 9 52 19 96 23 99 4 3 14 38 21 78 7 39 17 72 21
72 4 0 10 21 14 48 l8 47 9 -47 c5 -27 13 -48 17 -48z"/>
        <path d="M5180 2835 l0 -285 200 0 200 0 0 -435 0 -435 314 0 c173 0 321 3
330 6 14 5 16 53 16 435 l0 429 190 0 190 0 0 285 0 285 -720 0 -720 0 0 -285z"/>
        <path d="M6830 2400 l0 -719 328 2 327 2 5 230 c3 146 8 220 13 203 5 -15 15
-29 23 -32 8 -3 14 -12 14 -20 0 -8 6 -19 13 -23 6 -4 21 -26 32 -48 11 -22
30 -49 43 -61 12 -12 22 -26 22 -32 0 -6 6 -15 13 -19 6 -4 21 -26 32 -48 11
-22 28 -47 38 -57 9 -10 17 -22 17 -27 0 -6 13 -24 28 -41 l28 -30 382 0 c210
1 382 3 382 5 0 5 -25 38 -50 64 -8 9 -21 29 -29 44 -8 15 -18 27 -22 27 -5 0
-16 14 -24 31 -9 16 -25 40 -36 52 -39 44 -49 57 -49 62 0 3 -9 15 -20 28 -12
12 -29 31 -39 42 -10 11 -21 28 -24 38 -4 9 -11 17 -17 17 -5 0 -10 6 -10 14
0 8 -8 21 -17 28 -10 7 -27 29 -37 48 -11 19 -28 41 -38 48 -37 27 -16 52 43
52 19 0 29 5 29 15 0 8 9 15 20 15 20 0 71 20 80 31 3 3 18 10 34 16 16 5 34
17 40 28 6 10 25 32 41 49 17 17 37 51 45 76 8 25 19 48 25 52 14 10 13 267
-1 276 -6 4 -17 25 -24 47 -7 22 -19 44 -26 48 -8 4 -14 17 -14 28 0 12 -12
27 -30 37 -17 9 -33 25 -36 35 -3 9 -14 17 -24 17 -10 0 -25 7 -33 15 -17 16
-86 34 -134 35 -18 0 -33 5 -33 10 0 7 -228 10 -665 10 l-665 0 0 -720z m960
314 c23 -5 36 -16 48 -40 8 -19 19 -34 24 -34 4 0 8 -25 8 -55 0 -30 -4 -55
-9 -55 -4 0 -12 -15 -17 -32 -8 -28 -16 -34 -52 -42 -23 -6 -42 -13 -42 -18 0
-4 -58 -8 -130 -8 l-130 0 0 145 0 145 134 0 c73 0 148 -3 166 -6z"/>
        <path d="M8742 2403 l3 -718 328 -3 327 -2 0 720 0 720 -330 0 -330 0 2 -717z"/>
    </g>
</svg>
